<?xml version="1.0" encoding="UTF-8"?>
<svg version="1.1" xmlns="http://www.w3.org/2000/svg" width="3351" height="3340">
<path d="M0 0 C3.61495837 0.00233086 7.22991226 -0.00121785 10.84486969 -0.00396682 C17.18885958 -0.00799779 23.53284126 -0.00835671 29.87683195 -0.00626088 C39.37417579 -0.00314057 48.87151217 -0.00580879 58.36885547 -0.00955958 C74.55924793 -0.01578278 90.74963771 -0.01726726 106.94003119 -0.01614211 C123.34145901 -0.01501667 139.74288457 -0.0160552 156.14431204 -0.01971458 C157.18128245 -0.01994423 158.21825286 -0.02017388 159.28664662 -0.02041049 C163.51027245 -0.02135216 167.73389827 -0.02230785 171.95752409 -0.02328168 C215.99232086 -0.03341979 260.02711635 -0.03648744 304.06191415 -0.03707379 C308.80006187 -0.03713854 313.53820959 -0.03720648 318.27635731 -0.0372772 C320.04007964 -0.03730271 320.04007964 -0.03730271 321.83943272 -0.03732873 C347.90791068 -0.03773738 373.97638841 -0.03992791 400.04486624 -0.04243305 C410.78261474 -0.04346142 421.52036324 -0.04445146 432.25811174 -0.0454493 C433.44458035 -0.04555989 434.63104896 -0.04567048 435.85347117 -0.04578442 C503.83487789 -0.05210763 571.81628446 -0.05623363 639.79769148 -0.05577586 C642.34123517 -0.05576008 644.88477885 -0.05574435 647.42832253 -0.05572865 C658.91193505 -0.05565527 670.39554758 -0.0555671 681.8791601 -0.05547477 C686.99988103 -0.05543365 692.12060196 -0.0553935 697.24132289 -0.05535346 C699.80433452 -0.05533306 702.36734615 -0.05531204 704.93035778 -0.0552904 C785.96901629 -0.05461021 867.00767044 -0.06192687 948.04632773 -0.07583068 C968.46365242 -0.07933178 988.88097711 -0.08280128 1009.29830184 -0.08609508 C1010.5555274 -0.08629795 1011.81275296 -0.08650082 1013.10807627 -0.08670985 C1051.86623904 -0.09292628 1090.62440144 -0.09669068 1129.38256468 -0.09795306 C1130.59968784 -0.09799301 1131.816811 -0.09803296 1133.07081668 -0.09807413 C1159.79158825 -0.09892746 1186.5123598 -0.09918858 1213.23313139 -0.09890375 C1222.79467965 -0.09880727 1232.35622791 -0.09875522 1241.91777617 -0.09872502 C1244.29638591 -0.09871711 1246.67499565 -0.0987069 1249.05360539 -0.0986944 C1286.92855443 -0.09851819 1324.80349972 -0.10421121 1362.67844768 -0.11284821 C1400.83345902 -0.12150484 1438.98846519 -0.12368366 1477.14347711 -0.11708689 C1482.42135347 -0.11617466 1487.69922985 -0.11533136 1492.97710623 -0.11452888 C1494.01166444 -0.11436879 1495.04622264 -0.1142087 1496.11213109 -0.11404376 C1512.4617485 -0.11169515 1528.81135691 -0.11603817 1545.16097263 -0.12320006 C1561.25640789 -0.1301095 1577.35182994 -0.12982529 1593.44726492 -0.12200793 C1602.87035116 -0.11764304 1612.29339838 -0.11865845 1621.71648135 -0.12787471 C1627.99322808 -0.13345914 1634.269946 -0.13164551 1640.54669056 -0.12409193 C1644.09281755 -0.12002337 1647.63886837 -0.11882325 1651.18499039 -0.12684262 C1737.87925089 -0.28344961 1819.20130888 23.2357644 1885.21771445 81.12997987 C1885.98470664 81.78611268 1886.75169882 82.44224549 1887.5419332 83.11826112 C1891.97712848 86.92830506 1896.1263802 90.95589954 1900.21771445 95.12997987 C1902.79916094 97.72431211 1905.39392861 100.30176407 1908.01458945 102.85654237 C1914.57292436 109.26921008 1920.58261461 115.87570361 1926.21771445 123.12997987 C1926.70884726 123.75533631 1927.19998007 124.38069276 1927.7059957 125.0249994 C1943.12909343 144.68382014 1956.49271698 165.46398797 1967.23187461 188.06357362 C1967.89731281 189.4583901 1968.5717047 190.84896524 1969.25433554 192.23544862 C1988.49780929 231.40809322 1999.42986774 276.97404853 1999.34536495 320.57714202 C1999.34784112 322.39836292 1999.34784112 322.39836292 1999.35036731 324.25637616 C1999.353929 327.61607418 1999.35304853 330.97571687 1999.35026553 334.335412 C1999.34833551 338.00809651 1999.35223015 341.68077579 1999.35536232 345.35345884 C1999.36006858 351.81166777 1999.36106249 358.26986903 1999.35963397 364.7280794 C1999.35751112 374.39650942 1999.36112863 384.06493151 1999.36584875 393.73336031 C1999.37371974 410.2120591 1999.37681067 426.69075573 1999.37729468 443.16945626 C1999.37779705 459.87095346 1999.38044378 476.57244823 1999.38570227 493.27394463 C1999.38603241 494.32857475 1999.38636254 495.38320487 1999.38670268 496.46979348 C1999.38805268 500.76512382 1999.38941534 505.06045416 1999.39079478 509.3557845 C1999.40709854 560.21321472 1999.41348365 611.07064448 1999.41824265 661.92807686 C1999.42062587 687.25348653 1999.42432935 712.57889594 1999.42827975 737.90430541 C1999.44094464 819.14264659 1999.45172826 900.38098776 1999.45512021 981.61932991 C1999.45528245 985.50224406 1999.45544801 989.3851582 1999.45561459 993.26807235 C1999.45594839 1001.05530508 1999.45627887 1008.84253781 1999.45660915 1016.62977054 C1999.45699605 1025.74670836 1999.45738566 1034.86364619 1999.45778021 1043.98058402 C1999.45789263 1046.58992483 1999.45800405 1049.19926565 1999.45811447 1051.80860646 C1999.46166351 1135.60232879 1999.47674006 1219.39604255 1999.50005221 1303.1897616 C1999.51679627 1363.39937971 1999.53226994 1423.60899619 1999.53678717 1483.81861665 C1999.5369274 1485.67641053 1999.5369274 1485.67641053 1999.53707046 1487.57173561 C1999.53908963 1514.76217994 1999.54024558 1541.95262425 1999.54059905 1569.14306865 C1999.54073522 1578.87276397 1999.54094421 1588.6024593 1999.5411923 1598.33215463 C1999.54125386 1600.75264194 1999.54131218 1603.17312925 1999.54136725 1605.59361656 C1999.54228666 1644.14600264 1999.55225005 1682.69837975 1999.56682474 1721.25076288 C1999.58144917 1760.09020847 1999.58647734 1798.92964307 1999.5784052 1837.76909092 C1999.57728987 1843.1405933 1999.5762792 1848.51209569 1999.57533087 1853.88359811 C1999.57514091 1854.93652377 1999.57495094 1855.98944944 1999.57475521 1857.07428194 C1999.57202553 1873.72136501 1999.57935081 1890.36842771 1999.59090424 1907.01550635 C1999.60206486 1923.39980284 1999.60245648 1939.78407064 1999.59153406 1956.16836759 C1999.58545658 1965.76354135 1999.58748157 1975.35862836 1999.60178603 1984.95379387 C1999.61047995 1991.34202646 1999.60810965 1997.7301958 1999.59708732 2004.11842458 C1999.5911562 2007.72964359 1999.58958123 2011.34069369 1999.60177218 2014.95190088 C1999.86833071 2099.62456562 1969.60508594 2179.75701418 1912.21771445 2242.12997987 C1910.69606166 2243.83758334 1909.17523723 2245.54592529 1907.65521445 2247.25497987 C1901.24316021 2254.36835254 1894.49959716 2260.91676936 1887.21771445 2267.12997987 C1886.31794882 2267.91888612 1885.4181832 2268.70779237 1884.49115195 2269.52060487 C1833.37153251 2314.02269022 1766.8211821 2342.55070908 1699.21771445 2348.12997987 C1697.8866273 2348.25339471 1697.8866273 2348.25339471 1696.52864949 2348.37930278 C1683.6105207 2349.42094296 1670.67466008 2349.27220035 1657.72332653 2349.25995973 C1654.07943606 2349.25763861 1650.43555015 2349.26117307 1646.79166063 2349.26392655 C1640.39045365 2349.26796612 1633.98925479 2349.26831255 1627.588047 2349.26622061 C1618.00504397 2349.26310608 1608.42204836 2349.26576414 1598.83904586 2349.26951932 C1582.50440697 2349.27574885 1566.16977073 2349.27722605 1549.83513083 2349.27610185 C1533.28367097 2349.27497707 1516.73221336 2349.27601261 1500.18075385 2349.27967431 C1498.61205875 2349.28001879 1498.61205875 2349.28001879 1497.01167283 2349.28037023 C1492.75221582 2349.28131188 1488.49275882 2349.28226757 1484.23330181 2349.28324142 C1439.80586083 2349.2933841 1395.3784211 2349.29644734 1350.95097909 2349.29703353 C1346.16929065 2349.29709828 1341.38760222 2349.29716622 1336.60591378 2349.29723694 C1335.41931616 2349.29725394 1334.23271855 2349.29727095 1333.01016343 2349.29728847 C1306.7115801 2349.29769698 1280.412997 2349.29988708 1254.11441379 2349.30239278 C1243.28445201 2349.30342115 1232.45449022 2349.30441118 1221.62452843 2349.30540903 C1219.82958017 2349.30557492 1219.82958017 2349.30557492 1217.99837033 2349.30574415 C1149.42654503 2349.31206813 1080.85471988 2349.31619328 1012.28289427 2349.3157356 C1009.71680011 2349.31571982 1007.15070594 2349.31570408 1004.58461177 2349.31568839 C992.99899369 2349.31561501 981.4133756 2349.31552684 969.82775751 2349.3154345 C964.66147228 2349.31539338 959.49518706 2349.31535323 954.32890184 2349.31531319 C951.74308308 2349.3152928 949.15726432 2349.31527178 946.57144556 2349.31525013 C864.81046694 2349.31456993 783.04949264 2349.32188646 701.28851523 2349.33579041 C680.6896669 2349.33929147 660.09081857 2349.34276094 639.4919702 2349.34605481 C638.22359648 2349.34625769 636.95522276 2349.34646056 635.64841347 2349.34666958 C596.55138329 2349.35288527 557.45435348 2349.35665028 518.35732283 2349.3579128 C516.51587956 2349.35797272 516.51587956 2349.35797272 514.63723542 2349.35803386 C487.68678524 2349.35888717 460.73633509 2349.35914832 433.7858849 2349.35886348 C424.14230214 2349.358767 414.49871937 2349.35871496 404.8551366 2349.35868475 C402.45608186 2349.35867684 400.05702711 2349.35866664 397.65797237 2349.35865413 C359.44416365 2349.35847787 321.23035864 2349.36417343 283.01655099 2349.37280795 C244.5232174 2349.3814614 206.02988894 2349.38364612 167.53655478 2349.37704663 C162.21393175 2349.37613437 156.89130872 2349.37529108 151.56868567 2349.37448861 C150.52533725 2349.37432852 149.48198883 2349.37416844 148.40702379 2349.3740035 C131.90650945 2349.37165323 115.406004 2349.37600173 98.90549133 2349.3831598 C82.66854299 2349.39006267 66.43160775 2349.38979258 50.19465969 2349.38196766 C40.68393624 2349.37759657 31.17325145 2349.37863319 21.66253123 2349.38783445 C15.33280637 2349.39340606 9.00311013 2349.39162125 2.67338743 2349.38405166 C-0.90615483 2349.379971 -4.48562147 2349.37881672 -8.06515889 2349.38680235 C-60.79305071 2349.48085514 -110.76245939 2340.48284647 -158.78228555 2318.12997987 C-159.63242227 2317.73584901 -160.48255899 2317.34171815 -161.35845743 2316.93564393 C-182.60486028 2306.97587429 -202.27573375 2294.52447624 -220.78228555 2280.12997987 C-221.33835489 2279.6984662 -221.89442422 2279.26695252 -222.46734414 2278.82236268 C-228.93308482 2273.76403089 -234.98193103 2268.28108052 -240.99322305 2262.70029237 C-243.32738105 2260.54920558 -245.68975172 2258.45072328 -248.09478555 2256.37997987 C-253.73249521 2251.47610432 -258.86135358 2246.1870762 -263.72759805 2240.52060487 C-265.26979085 2238.72626648 -266.8301993 2236.94755778 -268.39947305 2235.17685487 C-322.97205417 2173.23359977 -349.4247806 2093.76048156 -349.16451153 2011.83362047 C-349.15629326 2008.15587368 -349.16591825 2004.47815912 -349.17302207 2000.80041583 C-349.18310415 1994.35973711 -349.18227723 1987.91913487 -349.17397144 1981.47845467 C-349.16159402 1971.83653501 -349.16676242 1962.19467632 -349.17511936 1952.55275513 C-349.18886415 1936.11256809 -349.1884964 1919.67240899 -349.18027673 1903.23221948 C-349.17200503 1886.58623417 -349.17029631 1869.94026721 -349.17648874 1853.29428079 C-349.17687625 1852.24048326 -349.17726377 1851.18668574 -349.17766303 1850.10095496 C-349.17926296 1845.80856649 -349.1809091 1841.51617805 -349.18261386 1837.22378962 C-349.1984589 1797.29959729 -349.19956813 1757.37541726 -349.19117151 1717.45122315 C-349.19092312 1716.26962364 -349.19067473 1715.08802413 -349.19041882 1713.87061857 C-349.19004564 1712.09536436 -349.19004564 1712.09536436 -349.18966492 1710.28424642 C-349.18208992 1674.20171008 -349.18014372 1638.11917882 -349.18373285 1602.03664185 C-349.18396529 1599.61868421 -349.18419675 1597.20072656 -349.18442726 1594.78276891 C-349.18535869 1585.06555466 -349.18631469 1575.34834042 -349.18730655 1565.63112617 C-349.19005733 1538.46891703 -349.19176931 1511.30670787 -349.19266496 1484.14449861 C-349.1927059 1482.90768304 -349.19274684 1481.67086748 -349.19278901 1480.39657266 C-349.19401651 1440.99702087 -349.1906379 1401.59747086 -349.18411622 1362.19791963 C-349.18390548 1360.9203734 -349.18369473 1359.64282717 -349.1834776 1358.32656742 C-349.18004291 1337.58115212 -349.17638445 1316.83573686 -349.17270708 1296.0903216 C-349.15813851 1213.81593846 -349.15881471 1131.54156997 -349.17339883 1049.2671869 C-349.17706252 1028.53213798 -349.18069572 1007.79708907 -349.18411622 987.06204011 C-349.18432757 985.78523958 -349.18453891 984.50843905 -349.18475666 983.1929476 C-349.19122697 943.83378521 -349.19396771 904.47462404 -349.19266496 865.11546113 C-349.19262421 863.8795583 -349.19258345 862.64365548 -349.19254147 861.37030105 C-349.19160396 834.2380703 -349.18970289 807.10583967 -349.18693345 779.97360905 C-349.18594606 770.26517702 -349.18500682 760.55674498 -349.18408132 750.84831294 C-349.18384915 748.43319493 -349.18361296 746.01807691 -349.18337273 743.60295889 C-349.17979459 707.53175084 -349.18283615 671.46054851 -349.19041882 635.38934116 C-349.19066721 634.20774165 -349.19091559 633.02614214 -349.19117151 631.80873658 C-349.19141955 630.62932495 -349.1916676 629.44991332 -349.19192316 628.23476194 C-349.20020442 588.42374912 -349.19714061 548.61275103 -349.18132927 508.80174031 C-349.17967228 504.5230532 -349.17806216 500.24436608 -349.17648874 495.96567895 C-349.17609812 494.91564444 -349.1757075 493.86560993 -349.17530504 492.7837562 C-349.16939764 476.18567576 -349.17349715 459.58761371 -349.18179575 442.98953494 C-349.1897494 426.65219577 -349.18691356 410.31488749 -349.17275349 393.97755223 C-349.16477754 384.41142715 -349.16486198 374.84538696 -349.17719828 365.27926603 C-349.18458227 358.90915246 -349.18090203 352.53910436 -349.16859772 346.16899862 C-349.16194189 342.56895167 -349.1596105 338.96907248 -349.17104727 335.36903366 C-349.44564885 242.23998824 -313.49420718 159.21716729 -248.28228555 93.44247987 C-247.41635782 92.56350038 -246.55043008 91.68452088 -245.65826211 90.77890565 C-239.68051845 84.79328765 -233.41351104 79.37691538 -226.78228555 74.12997987 C-226.02979532 73.52355653 -225.27730508 72.91713319 -224.50201211 72.29233338 C-176.65000276 33.78624851 -118.82419056 9.89570191 -57.90728555 2.37997987 C-56.97078164 2.26428651 -56.03427774 2.14859315 -55.06939493 2.02939393 C-36.7650729 -0.04006378 -18.39492941 -0.01762093 0 0 Z " fill="#0660B2" transform="translate(808.7822855506092,447.87002013251185)"/>
<path d="M0 0 C1.0626709 0.37801758 2.1253418 0.75603516 3.22021484 1.14550781 C24.75990905 8.86095322 45.81495028 17.68236788 66.8848877 26.58586121 C76.10493651 30.4767936 85.36137098 34.27676016 94.625 38.0625 C97.84527928 39.37965357 101.06530975 40.69741385 104.28515625 42.015625 C105.08297516 42.34224625 105.88079407 42.66886749 106.70278931 43.00538635 C115.83413812 46.74680432 124.9486656 50.52866389 134.0625 54.3125 C153.43726888 62.35540281 172.82444148 70.36800597 192.21505737 78.37261963 C199.06603213 81.20094137 205.91603592 84.03160556 212.765625 86.86328125 C230.77203118 94.3064793 248.78261782 101.73882899 266.8125 109.125 C281.60303763 115.18427767 296.37383996 121.29001821 311.13574219 127.41870117 C323.43922873 132.52634392 335.74964025 137.61702036 348.06350708 142.69958496 C375.80106245 154.14900743 375.80106245 154.14900743 387.625 159.0625 C388.55965088 159.44978271 389.49430176 159.83706543 390.45727539 160.23608398 C391.28864014 160.58227783 392.12000488 160.92847168 392.9765625 161.28515625 C394.01417725 161.71646851 394.01417725 161.71646851 395.07275391 162.15649414 C397 163 397 163 399.02880859 164.07983398 C401.18219845 165.20884362 401.18219845 165.20884362 404.5625 165.4375 C408 166 408 166 409.27807617 167.33984375 C411.78676178 169.75853965 414.80987819 170.82371523 417.98828125 172.125 C418.70134933 172.42380569 419.41441742 172.72261139 420.14909363 173.0304718 C422.53394818 174.02755276 424.92313303 175.01378655 427.3125 176 C429.01586512 176.7093032 430.71898479 177.41919606 432.421875 178.12963867 C437.00205638 180.03779655 441.5863136 181.93595385 446.17193604 183.83099365 C448.96855872 184.98700345 451.7644274 186.14481738 454.56005859 187.30322266 C465.10423734 191.67160373 475.65384885 196.02668889 486.20658875 200.37434387 C492.89037318 203.12860562 499.57108281 205.89020837 506.25 208.65625 C527.16164493 217.3141062 548.09872819 225.90657909 569.0625 234.4375 C576.77077061 237.57572074 584.47871085 240.71475267 592.1864624 243.85424805 C594.72908012 244.88967377 597.27198757 245.92438452 599.81494141 246.95898438 C647.88743549 266.53146835 693.757244 288.64702393 725.64990234 331.20117188 C726.97919377 332.97227843 728.32639799 334.728551 729.67578125 336.484375 C761.79856663 378.76714182 776.81243429 424.00145301 776.40557575 476.90545654 C776.38010621 480.79306042 776.37818505 484.68068493 776.37347412 488.56835938 C776.3611752 495.88815857 776.32853641 503.20771102 776.28807616 510.52740288 C776.24294397 518.87843045 776.22126862 527.22947151 776.20129442 535.5805912 C776.15978757 552.72053546 776.08969831 569.86024143 776 587 C774.94542099 587.19372192 773.89084198 587.38744385 772.80430603 587.58703613 C768.79525403 588.32363374 764.78633496 589.06095275 760.77745056 589.79846191 C759.06042395 590.11424335 757.34336393 590.42984322 755.62626648 590.74523926 C728.63793145 595.70283552 701.76743706 600.909832 675.02685547 607.08203125 C670.75437644 608.06145027 666.47362131 609.00171022 662.19140625 609.9375 C638.08663839 615.21052442 613.92585412 620.51674741 590.3125 627.7265625 C583.61019525 629.74701456 576.82101917 631.47552643 570.04736328 633.23852539 C560.25725628 635.82667032 550.63747717 638.90148632 541 642 C539.31723559 642.53886688 537.63445559 643.07768509 535.95166016 643.61645508 C479.26468843 661.79913261 423.88847189 682.60960343 370 708 C368.94683594 708.495 367.89367188 708.99 366.80859375 709.5 C293.55955247 744.01243172 223.44110163 788.10893551 163.91796875 843.30078125 C161.99381205 845.08069059 160.0590813 846.84924597 158.11328125 848.60546875 C147.85933281 857.87372388 137.63721478 867.42460492 128.71875 878.00390625 C126.9211515 880.09157178 125.0489374 882.09995881 123.1652832 884.10986328 C117.70259715 889.95796223 112.68858897 896.05047429 107.8046875 902.38671875 C105.94852693 904.79427201 104.06023391 907.16865132 102.1328125 909.51953125 C64.85765192 955.03865574 33.72308342 1010.72877822 19 1068 C18.78972168 1068.80663086 18.57944336 1069.61326172 18.36279297 1070.44433594 C16.77744709 1076.60173808 15.3499481 1082.78703729 14 1089 C13.78456543 1089.98709961 13.56913086 1090.97419922 13.34716797 1091.99121094 C-2.101303 1164.03860535 6.5075106 1236.748386 30 1306 C30.36996094 1307.10375977 30.73992187 1308.20751953 31.12109375 1309.34472656 C43.45669044 1345.93355226 61.05310602 1381.00207263 81 1414 C82.73239344 1416.8756192 84.46414366 1419.75162065 86.19458008 1422.62841797 C87.24490009 1424.37086829 88.29919873 1426.11092884 89.3581543 1427.84814453 C89.82390869 1428.61626465 90.28966309 1429.38438477 90.76953125 1430.17578125 C91.17792236 1430.84520752 91.58631348 1431.51463379 92.00708008 1432.2043457 C93 1434 93 1434 94 1437 C91.48513229 1438.25743385 89.38718827 1438.37243893 86.58374023 1438.66430664 C85.43890671 1438.7843103 84.29407318 1438.90431396 83.11454773 1439.0279541 C81.85858292 1439.15408081 80.6026181 1439.28020752 79.30859375 1439.41015625 C78.00102615 1439.54232544 76.69345856 1439.67449463 75.3462677 1439.81066895 C71.04454113 1440.24061778 66.74135462 1440.65445332 62.4375 1441.0625 C61.70593185 1441.13193188 60.97436371 1441.20136375 60.22062683 1441.27289963 C-17.07394575 1448.56198801 -94.9321003 1444.07151226 -159 1395 C-159.89847656 1394.31292969 -160.79695312 1393.62585937 -161.72265625 1392.91796875 C-166.88344486 1388.87388865 -171.78228248 1384.57857517 -176.62109375 1380.15625 C-178.77510509 1378.20384564 -180.97027726 1376.31722641 -183.1875 1374.4375 C-187.19558433 1370.92443804 -190.62395845 1367.11810216 -194 1363 C-194.40621582 1362.51144531 -194.81243164 1362.02289062 -195.23095703 1361.51953125 C-202.41740828 1352.83798283 -208.55786236 1343.86672209 -214 1334 C-214.3412793 1333.38995117 -214.68255859 1332.77990234 -215.03417969 1332.15136719 C-225.21000415 1313.73750684 -231.24890933 1293.81259896 -234 1273 C-234.25415449 1271.22825214 -234.25415449 1271.22825214 -234.51344341 1269.4207114 C-235.34114723 1261.84406769 -235.1437644 1254.20401452 -235.1386652 1246.5923481 C-235.14111445 1244.801643 -235.14399886 1243.01093846 -235.14727798 1241.22023469 C-235.1550428 1236.28960966 -235.1566196 1231.35899898 -235.1572054 1226.42836858 C-235.15893517 1221.06649441 -235.1664213 1215.70462781 -235.17318195 1210.34275806 C-235.18424189 1200.93981116 -235.19161192 1191.53686695 -235.19658089 1182.13391495 C-235.20398848 1168.14716538 -235.21707387 1154.16042516 -235.23132664 1140.1736811 C-235.25516185 1116.62318667 -235.27436695 1093.07269066 -235.29092598 1069.52219009 C-235.3073797 1046.14031881 -235.32586579 1022.75845058 -235.34705925 999.3765831 C-235.34771764 998.64913718 -235.34837604 997.92169127 -235.34905439 997.17220153 C-235.35507023 990.52626911 -235.36111001 983.8803367 -235.36717889 977.23440433 C-235.38227125 960.70603317 -235.39704405 944.17766173 -235.41159725 927.64929008 C-235.41226039 926.89642141 -235.41292353 926.14355274 -235.41360676 925.36786986 C-235.44585381 888.72490352 -235.47440756 852.08193442 -235.50268555 815.43896484 C-235.5412334 765.49635215 -235.58188148 715.55374193 -235.62561907 665.61113349 C-235.62768499 663.25209569 -235.62974983 660.89305789 -235.63181442 658.53402009 C-235.64346309 645.22561673 -235.65513222 631.9172134 -235.66682914 618.60881008 C-235.73180993 544.67487678 -235.79518431 470.74094195 -235.91496194 323.00595997 C-235.92090097 315.46345175 -235.9269476 307.92094363 -235.93311433 300.37843559 C-235.93605921 296.773435 -235.93897548 293.16843439 -235.94188858 289.56343378 C-235.94567957 284.87728364 -235.9495979 280.19113362 -235.95359343 275.50498365 C-235.96290078 264.34944807 -235.96990177 253.19391936 -235.97173035 242.03837991 C-235.97267667 237.76583235 -235.97384422 233.49328491 -235.9751606 229.22073746 C-235.97544903 228.17772219 -235.97573746 227.13470691 -235.97603463 226.06008512 C-235.98101677 212.15674054 -236.0176244 198.25383671 -236.08139949 184.35063998 C-236.11517715 176.94200542 -236.13908316 169.53334823 -236.16051849 162.12466861 C-236.17554264 157.18674537 -236.19603011 152.24898886 -236.2306856 147.31116141 C-236.49471294 109.06166112 -236.49471294 109.06166112 -233 92 C-232.70646226 90.470401 -232.41325568 88.94073841 -232.12037987 87.41101253 C-226.24247412 56.95052955 -207.60715273 28.53352935 -182.24169922 10.76855469 C-129.73911489 -24.1754572 -57.24136711 -20.62289799 0 0 Z " fill="#FEFEFE" transform="translate(1062,941)"/>
<path d="M0 0 C1.16745758 -0.03659729 2.33491516 -0.07319458 3.53775024 -0.11090088 C4.537957 -0.14609833 5.53816376 -0.18129578 6.56867981 -0.21755981 C9.03701782 0.21673584 9.03701782 0.21673584 10.66778598 1.8716768 C12.39693617 4.8331616 12.41241006 6.74982952 12.41306531 10.17197609 C12.42057587 11.40121182 12.42808643 12.63044755 12.43582457 13.89693284 C12.42899389 15.26587446 12.4218893 16.63481473 12.41454124 18.00375366 C12.41766935 19.46023309 12.42211213 20.9167102 12.42775434 22.37318206 C12.43949358 26.39859379 12.43241701 30.4237912 12.42242048 34.44919965 C12.41484055 38.81976146 12.42457809 43.19028927 12.43215048 47.56084633 C12.44301164 55.22844291 12.4426409 62.8959762 12.435009 70.56357574 C12.42369105 81.96529727 12.42944737 93.3669651 12.43863392 104.76868623 C12.45445679 125.12865981 12.45305179 145.48860521 12.44439719 165.84858149 C12.43686043 183.66557754 12.43487578 201.48256323 12.43846512 219.29956055 C12.43880885 221.07002855 12.43880885 221.07002855 12.43915953 222.87626357 C12.44009349 227.66713247 12.44104869 232.45800135 12.44203882 237.24887023 C12.45122271 282.22153278 12.44288452 327.19417735 12.42674813 372.16683713 C12.41251055 412.15157863 12.4137844 452.13629147 12.4281311 492.12103271 C12.44418338 537.00968809 12.45057148 581.89832756 12.44129431 626.7869854 C12.44033211 631.56929397 12.43939359 636.35160255 12.43846512 641.13391113 C12.43810927 642.90029391 12.43810927 642.90029391 12.43774623 644.70236118 C12.43432901 662.51129527 12.43833357 680.32021789 12.44590378 698.12915039 C12.45446548 718.3719276 12.45237148 738.61467213 12.43606155 758.85744524 C12.42722759 770.19663928 12.42671367 781.53576262 12.43800007 792.87495489 C12.4447001 800.43831248 12.44058996 808.00161309 12.42748576 815.5649622 C12.420313 819.88149233 12.41798424 824.19788145 12.42870371 828.5144074 C12.43834322 832.43582479 12.4343528 836.35697514 12.41916173 840.27837279 C12.41612269 841.69338295 12.41818429 843.10841487 12.42577954 844.52340791 C12.43532333 846.43608469 12.42475158 848.3488307 12.41306531 850.26149559 C12.4127604 851.85396317 12.4127604 851.85396317 12.41244932 853.47860181 C11.98474667 856.59796497 11.22009666 857.97837737 9.03701782 860.21673584 C6.77716064 860.71121216 6.77716064 860.71121216 4.08633423 860.70257568 C3.06890137 860.70863327 2.05146851 860.71469086 1.00320435 860.72093201 C-0.10712158 860.70665665 -1.21744751 860.69238129 -2.36141968 860.67767334 C-3.52250244 860.67761795 -4.68358521 860.67756256 -5.87985229 860.67750549 C-9.6996555 860.67033885 -13.51839847 860.63236719 -17.33798218 860.59173584 C-19.98527725 860.57598713 -22.63257556 860.56077324 -25.27987671 860.54608154 C-74.15426026 860.21125021 -122.53226227 856.67273476 -170.96298218 850.21673584 C-171.82808411 850.1015863 -172.69318604 849.98643677 -173.58450317 849.86779785 C-221.03099578 843.52076233 -268.07814468 833.97549725 -313.96298218 820.21673584 C-315.61934692 819.72487793 -315.61934692 819.72487793 -317.30917358 819.2230835 C-363.55003523 805.42721904 -410.20936021 788.55640114 -453.06210327 766.19281006 C-455.2096642 765.09006814 -457.37504951 764.02860556 -459.54501343 762.97064209 C-471.7283974 757.0132456 -483.5162544 750.48091322 -495.28085327 743.73919678 C-498.41857823 741.95812515 -501.58366404 740.23209668 -504.75448608 738.51092529 C-534.47044182 722.32096943 -563.08582616 703.04606857 -588.96298218 681.21673584 C-589.53854858 680.73140381 -590.11411499 680.24607178 -590.7071228 679.74603271 C-592.58757368 678.1570025 -594.46371925 676.56305881 -596.33798218 674.96673584 C-596.92144409 674.47109131 -597.50490601 673.97544678 -598.10604858 673.46478271 C-598.94401978 672.74645264 -598.94401978 672.74645264 -599.79891968 672.01361084 C-600.28924683 671.59434326 -600.77957397 671.17507568 -601.28475952 670.74310303 C-601.838573 670.23940186 -602.39238647 669.73570068 -602.96298218 669.21673584 C-603.80921487 668.53418128 -604.65544756 667.85162672 -605.52732366 667.14838868 C-608.65037337 663.3893652 -608.66918411 660.45967358 -608.61174107 655.78392315 C-608.62578763 654.50751909 -608.62578763 654.50751909 -608.64011797 653.20532909 C-608.66547944 650.34031131 -608.65512013 647.47653137 -608.64500427 644.61143494 C-608.6557735 642.54215943 -608.66870105 640.47289422 -608.68360704 638.40364438 C-608.71815698 632.70671036 -608.72127538 627.01012195 -608.71921885 621.31309927 C-608.72230652 615.17316656 -608.753945 609.03337067 -608.78166199 602.89350891 C-608.83095646 590.8604228 -608.85218767 578.82747908 -608.86177392 566.79431459 C-608.86288755 565.39781448 -608.86400648 564.00131438 -608.86513066 562.60481429 C-608.86568666 561.91146592 -608.86624266 561.21811754 -608.86681551 560.50375861 C-608.87349041 552.82199079 -608.8888766 545.140244 -608.90463066 537.45849037 C-608.95132577 514.25985564 -608.99025998 491.06124493 -608.99538517 467.86255932 C-608.99555771 467.1204953 -608.99573026 466.37843127 -608.99590803 465.61388046 C-608.99677164 461.85271057 -608.99757181 458.09154066 -608.99837226 454.33037075 C-608.99870101 452.82073138 -608.99902997 451.31109201 -608.99935913 449.80145264 C-608.99951381 449.05350211 -608.99966849 448.30555158 -608.99982785 447.53493589 C-609.0050267 424.03078671 -609.05673164 400.52711858 -609.14291382 377.02313232 C-609.23970943 350.62225401 -609.2957234 324.22170146 -609.29539579 297.82063562 C-609.29551481 295.00589992 -609.29579955 292.19116428 -609.29620171 289.3764286 C-609.29631657 288.33682412 -609.29631657 288.33682412 -609.29643375 287.27621753 C-609.29864345 276.11893829 -609.33985923 264.96212923 -609.39477261 253.80499955 C-609.44891353 242.5931484 -609.45736908 231.38193331 -609.42256469 220.16994568 C-609.40491798 214.09453882 -609.4067923 208.0207742 -609.46073914 201.9455452 C-609.50963747 196.38505294 -609.50330521 190.82747801 -609.45270532 185.26702622 C-609.44415022 183.2542405 -609.45594427 181.24124573 -609.48997427 179.22872951 C-609.72817451 164.1683577 -609.72817451 164.1683577 -605.33092391 159.30669463 C-602.28083784 157.24476707 -599.32384112 155.70180368 -595.96298218 154.21673584 C-594.63341974 153.36448005 -593.31780468 152.48858375 -592.03720093 151.56439209 C-584.18380432 146.25425823 -576.21672394 141.20832078 -568.02987671 136.42816162 C-566.62887631 135.60702248 -565.23150558 134.77966471 -563.8374939 133.94671631 C-537.42017444 118.16365948 -509.477899 104.73799637 -480.96298218 93.21673584 C-479.82345093 92.75170654 -478.68391968 92.28667725 -477.50985718 91.80755615 C-460.53008943 84.91660041 -443.30455423 78.8173441 -425.96298218 72.90423584 C-424.98944794 72.57161743 -424.0159137 72.23899902 -423.01287842 71.89630127 C-375.07244822 55.55836703 -326.14925452 43.16986112 -276.53378296 33.1449585 C-272.75449929 32.38040729 -268.98074837 31.59232474 -265.20907593 30.79095459 C-245.7630828 26.70003874 -226.11388284 23.67719454 -206.48532104 20.61126709 C-204.19524852 20.25306574 -201.90571928 19.89159916 -199.61630249 19.52923584 C-169.78797398 14.83387944 -139.7149353 11.85450834 -109.70030212 8.62701416 C-107.05207991 8.33629563 -104.40578787 8.03732722 -101.75971985 7.72833252 C-90.61807843 6.43673999 -79.47455516 5.50158236 -68.28720093 4.70892334 C-66.46075718 4.57743351 -64.63432616 4.44576669 -62.8079071 4.31393433 C-59.01560637 4.04105616 -55.22313073 3.77079384 -51.43051147 3.50238037 C-46.60485336 3.160571 -41.77976652 2.81131829 -36.95479107 2.46002007 C-33.19635561 2.1873465 -29.43761789 1.9190355 -25.67878151 1.65195084 C-23.90033636 1.5249987 -22.12199036 1.39664841 -20.34375572 1.26678085 C-13.56552218 0.77332324 -6.78587201 0.37111993 0 0 Z " fill="#00DBF8" transform="translate(2455.9629821777344,1524.7832641601563)"/>
<path d="M0 0 C1.17045868 0.00273422 1.17045868 0.00273422 2.36456299 0.00552368 C24.30807531 0.0911991 45.45864589 2.67602261 66.6875 8.3125 C67.38423828 8.49506348 68.08097656 8.67762695 68.79882812 8.86572266 C99.21437113 17.04348658 129.03042522 32.48710539 152.6875 53.3125 C153.68265625 54.17488281 154.6778125 55.03726563 155.703125 55.92578125 C162.43458979 61.85467272 168.2447906 68.15426493 173.6875 75.3125 C174.36425781 76.18519531 175.04101562 77.05789063 175.73828125 77.95703125 C191.44674014 98.78980294 200.5977031 122.69600184 204.6875 148.3125 C204.86165552 149.38034597 205.03581104 150.44819194 205.215244 151.54839689 C205.7034972 155.44000519 205.83002481 159.24579217 205.82172108 163.15924358 C205.82407331 163.92251352 205.82642554 164.68578345 205.82884905 165.47218278 C205.83549929 168.02652887 205.83508204 170.58082362 205.83467102 173.13517761 C205.83797206 174.98627957 205.84169813 176.83738082 205.8458125 178.68848115 C205.85581215 183.77284941 205.85954597 188.85720586 205.86220181 193.94158256 C205.86611055 199.42557327 205.87568805 204.90955467 205.88441467 210.39353943 C205.90415624 223.63064508 205.91423939 236.86775146 205.92314246 250.10486814 C205.9275265 256.33605449 205.93289277 262.56724 205.93813133 268.79842567 C205.95513632 289.50428558 205.9696583 310.21014503 205.97688007 330.91601086 C205.97735483 332.25412979 205.97783072 333.59224873 205.97830774 334.93036767 C205.9786623 335.92573438 205.9786623 335.92573438 205.97902403 336.94120952 C205.98022522 340.30317288 205.98144067 343.66513625 205.98266602 347.02709961 C205.98290617 347.6942859 205.98314632 348.36147218 205.98339374 349.04887623 C205.99129476 370.70297257 206.01474731 392.35701428 206.04722196 414.01108674 C206.08149403 436.90541405 206.10122732 459.7997193 206.10452431 482.69407445 C206.10669306 495.17467212 206.11549561 507.65518937 206.14098549 520.13576317 C206.16262787 530.75692003 206.17077464 541.37797693 206.16101871 551.99915334 C206.15645608 557.42141417 206.1584739 562.84346844 206.17778015 568.26570129 C206.1952839 573.22426654 206.19451912 578.18247257 206.17888286 583.14104096 C206.17648729 584.93968401 206.18093009 586.73835111 206.19271151 588.53695717 C206.20768565 590.97284171 206.19826008 593.40742929 206.18248463 595.84327984 C206.19270683 596.54951761 206.20292904 597.25575538 206.21346101 597.98339429 C206.16618263 601.3040732 205.87789709 603.05632077 203.87439793 605.75202829 C200.71356456 608.0074564 197.77533635 607.7948041 194.046875 607.64453125 C192.92173492 607.62070122 192.92173492 607.62070122 191.77386475 607.59638977 C184.27088962 607.39587906 176.7909997 606.83953366 169.31433105 606.20187378 C165.07548921 605.84185197 160.83447976 605.50879378 156.59375 605.171875 C155.70548523 605.10081039 154.81722046 605.02974579 153.90203857 604.95652771 C128.7334151 602.95398366 103.53306874 601.36158879 78.3125 600.1875 C77.49261597 600.14897919 76.67273193 600.11045837 75.82800293 600.07077026 C49.76698657 598.86177781 23.72819709 598.14969977 -2.36095452 598.11266518 C-4.48214331 598.10929793 -6.60332361 598.10438964 -8.72450829 598.0990448 C-18.61354801 598.07443823 -28.50255287 598.06450292 -38.39162159 598.06293678 C-40.76021404 598.06249811 -43.12880607 598.06163248 -45.49739838 598.06071472 C-90.92615264 598.04633721 -136.27781114 598.213569 -181.63415527 601.0814209 C-185.40959325 601.31859954 -189.18560274 601.54378877 -192.96191406 601.76660156 C-258.84147167 605.68956105 -324.59276237 612.55747615 -389.88330078 622.17919922 C-390.86950409 622.32276352 -391.8557074 622.46632782 -392.87179565 622.61424255 C-394.68677574 622.87905472 -396.50108374 623.14854034 -398.31448364 623.42396545 C-399.12368256 623.54178879 -399.93288147 623.65961212 -400.76660156 623.78100586 C-401.45610901 623.88424667 -402.14561646 623.98748749 -402.85601807 624.09385681 C-406.34905568 624.40476033 -409.80595459 624.34384701 -413.3125 624.3125 C-413.31488835 623.63610379 -413.31727671 622.95970758 -413.31973743 622.26281452 C-413.37920479 605.70680834 -413.45495296 589.15096156 -413.54821491 572.5951128 C-413.59293661 564.58840576 -413.63240369 556.58174087 -413.65893555 548.57495117 C-413.68210917 541.58582175 -413.71571718 534.59682839 -413.76120156 527.60780734 C-413.78487668 523.91661224 -413.80377175 520.22554972 -413.81011391 516.53428078 C-413.85032276 495.82357149 -414.75930462 475.69780243 -420.3125 455.625 C-420.60592285 454.5539502 -420.8993457 453.48290039 -421.20166016 452.37939453 C-438.2478672 393.00739484 -480.58341953 341.8609752 -534.11328125 312.046875 C-560.53248133 297.71487715 -588.70628484 286.75364204 -616.69140625 275.90625 C-626.72380936 272.00335515 -636.64631498 267.83305306 -646.58288574 263.69384766 C-653.29436774 260.89975425 -660.01932512 258.13859819 -666.7437439 255.37582397 C-679.38528319 250.18087665 -692.01117548 244.94937352 -704.625 239.6875 C-715.53749255 235.13571913 -726.45113595 230.58693623 -737.375 226.0625 C-738.53161133 225.58288818 -739.68822266 225.10327637 -740.87988281 224.60913086 C-746.89751798 222.11903105 -752.92525905 219.65694538 -758.96875 217.23046875 C-760.22390509 216.72500477 -761.47903245 216.21947191 -762.73413086 215.71386719 C-765.10001718 214.76262637 -767.4679186 213.81637675 -769.83813477 212.87597656 C-770.89315186 212.45155273 -771.94816895 212.02712891 -773.03515625 211.58984375 C-773.96078369 211.22109131 -774.88641113 210.85233887 -775.84008789 210.47241211 C-778.2818433 209.32688234 -780.22502364 208.00939461 -782.3125 206.3125 C-781.83565493 201.16654699 -779.21673134 197.77947253 -776.3125 193.6875 C-775.81556641 192.97819336 -775.31863281 192.26888672 -774.80664062 191.53808594 C-770.57708928 185.56201691 -766.11813676 179.83857293 -761.3125 174.3125 C-760.48363281 173.34957031 -759.65476562 172.38664062 -758.80078125 171.39453125 C-727.20424673 135.38944991 -683.90042254 120.99455285 -637.84448242 113.43041992 C-625.10648893 111.32969264 -612.4320662 108.9129987 -599.75 106.5 C-583.05346799 103.32802773 -566.35041587 100.20356169 -549.625 97.1875 C-534.76881432 94.50770216 -519.93450658 91.73042784 -505.11029053 88.8793335 C-490.51030258 86.07478296 -475.88594626 83.42228218 -461.25 80.8125 C-445.84815195 78.06611062 -430.47262572 75.2226034 -415.125 72.1875 C-401.50426355 69.49413126 -387.86777557 66.93936654 -374.19604492 64.51846313 C-359.48503968 61.91111896 -344.80330182 59.16017819 -330.125 56.375 C-313.96956476 53.31019884 -297.8080457 50.29054425 -281.625 47.375 C-264.75021891 44.3348165 -247.90442671 41.15439255 -231.0625 37.9375 C-210.43727393 33.99817715 -189.78878285 30.22060309 -169.11120605 26.56655884 C-152.98540342 23.71479082 -136.88944287 20.74023976 -120.8125 17.625 C-92.40525396 12.12575488 -63.9241982 6.83763996 -35.27563477 2.73852539 C-33.14121325 2.43164844 -31.00910364 2.10853446 -28.87866211 1.77514648 C-19.20276191 0.34014234 -9.76696528 -0.04768388 0 0 Z " fill="#00DBF8" transform="translate(2265.3125,895.6875)"/>
<path d="M0 0 C2.06575407 0.00504835 4.13150939 0.00960511 6.19726562 0.01367188 C11.11071012 0.02436055 16.02408957 0.04142075 20.9375 0.0625 C20.9375 0.3925 20.9375 0.7225 20.9375 1.0625 C19.33600098 1.18927124 19.33600098 1.18927124 17.70214844 1.31860352 C-48.22297893 6.57818481 -114.0605343 13.51132064 -179.49765015 23.11628723 C-185.63491581 24.01226999 -191.78135157 24.80732296 -197.9375 25.5625 C-209.31937358 26.97639058 -220.60940927 28.9457986 -231.91455078 30.86450195 C-240.20084423 32.26846093 -248.48473813 33.61044481 -256.8125 34.75 C-263.07032506 35.60949088 -269.27121145 36.5990921 -275.47314453 37.81079102 C-279.60130099 38.6129612 -283.73486043 39.35355736 -287.8828125 40.046875 C-320.33745129 45.47281728 -352.65660083 51.77463976 -384.69677734 59.27587891 C-387.92721766 60.03088244 -391.16016847 60.77372031 -394.39453125 61.51171875 C-406.68610558 64.3202593 -418.96108713 67.20068852 -431.23287964 70.09429932 C-432.88141962 70.48280479 -434.53011599 70.87064736 -436.1789856 71.25775146 C-450.43964121 74.60792026 -464.57839368 78.26845465 -478.625 82.4375 C-485.43364815 84.44436096 -492.24809102 86.40407624 -499.10693359 88.23242188 C-585.41800046 111.25721045 -671.13085393 145.27314327 -776.0625 208.0625 C-777.2086377 208.82796143 -777.2086377 208.82796143 -778.37792969 209.60888672 C-789.53610104 217.08936482 -800.41613766 224.87105699 -811.0625 233.0625 C-811.65869141 233.51834473 -812.25488281 233.97418945 -812.86914062 234.44384766 C-830.65810254 248.06995712 -847.18388529 263.14216474 -863.0625 278.9375 C-863.66126953 279.53159668 -864.26003906 280.12569336 -864.87695312 280.73779297 C-907.21437154 323.22895061 -938.67623346 378.723575 -951.4675293 437.34033203 C-951.89746775 439.30742837 -952.34072105 441.27163062 -952.79223633 443.23388672 C-954.81102676 452.20925965 -956.20081335 461.18304265 -957.25 470.3125 C-957.33654846 471.06006561 -957.42309692 471.80763123 -957.51226807 472.57785034 C-967.16715608 558.05187351 -941.25314884 642.74756945 -903.5 718.5 C-902.91481598 719.67429565 -902.91481598 719.67429565 -902.31781006 720.87231445 C-895.89923107 733.71403872 -889.07834403 746.20079089 -881.62255859 758.47607422 C-880.14334763 760.92846248 -878.70046374 763.39811314 -877.26953125 765.87890625 C-853.62408574 806.59719338 -824.54092738 844.67825609 -793.171875 879.70703125 C-792.0625 881.0625 -792.0625 881.0625 -792.0625 882.0625 C-827.08700094 882.24563535 -862.11140495 882.38658944 -897.13628396 882.47102264 C-901.27184634 882.48102822 -905.40740778 882.4913828 -909.54296875 882.50195312 C-910.36627994 882.50405161 -911.18959114 882.50615009 -912.03785115 882.50831217 C-925.36657086 882.54311704 -938.69501436 882.60619026 -952.02357024 882.67972237 C-965.70126173 882.75455094 -979.37880863 882.79897362 -993.05669641 882.81520796 C-1001.4959746 882.82618181 -1009.9344721 882.86083198 -1018.37350994 882.92583174 C-1024.16154369 882.96814013 -1029.94917423 882.98089643 -1035.73735136 882.97051102 C-1039.0768206 882.96538906 -1042.41382829 882.9775797 -1045.75324249 883.0161438 C-1049.37739509 883.05594573 -1052.99820679 883.04638387 -1056.62243652 883.02453613 C-1057.67303552 883.04783886 -1058.72363452 883.0711416 -1059.80606985 883.09515047 C-1065.52285506 883.00198059 -1068.49770818 882.25298654 -1072.63199615 878.16863251 C-1073.80339075 876.82371644 -1074.95075245 875.45712609 -1076.0625 874.0625 C-1076.83078125 873.18464844 -1077.5990625 872.30679688 -1078.390625 871.40234375 C-1079.02484375 870.60957031 -1079.6590625 869.81679687 -1080.3125 869 C-1081.0653125 868.0615625 -1081.818125 867.123125 -1082.59375 866.15625 C-1083.4084375 865.1353125 -1084.223125 864.114375 -1085.0625 863.0625 C-1085.98854296 861.92623465 -1086.91567056 860.79085261 -1087.84375 859.65625 C-1109.35930853 833.23646242 -1127.76670553 804.52562001 -1143.76806641 774.47509766 C-1144.8805552 772.40161327 -1146.01469359 770.34392228 -1147.16796875 768.29296875 C-1173.58439563 720.63446664 -1188.88040415 666.95574855 -1195.0625 613.0625 C-1195.1759375 612.08361816 -1195.289375 611.10473633 -1195.40625 610.09619141 C-1199.97490748 564.17302544 -1194.26361317 516.84860411 -1180.0625 473.0625 C-1179.79356934 472.21751953 -1179.52463867 471.37253906 -1179.24755859 470.50195312 C-1166.34273803 430.31152726 -1145.38438833 392.69511849 -1120.0625 359.0625 C-1119.61567871 358.46405273 -1119.16885742 357.86560547 -1118.70849609 357.24902344 C-1113.29629613 350.01227934 -1107.59752579 343.05049779 -1101.71875 336.19140625 C-1099.24876898 333.30234704 -1096.87248176 330.34477911 -1094.5 327.375 C-1090.73160858 322.73697979 -1086.65434142 318.55246432 -1082.3828125 314.37890625 C-1080.4187481 312.41814835 -1078.60190999 310.43011835 -1076.8125 308.3125 C-1069.64889627 299.95779826 -1061.63918129 292.06271758 -1053.23828125 284.95703125 C-1050.79644644 282.83083756 -1048.4416926 280.62500927 -1046.08227539 278.40820312 C-1039.61830498 272.33784158 -1033.00553936 266.58494459 -1026.0625 261.0625 C-1024.93395458 260.14308123 -1023.80640462 259.22243964 -1022.6796875 258.30078125 C-1013.79634128 251.06591573 -1004.63714496 244.28234794 -995.29589844 237.65185547 C-993.16152186 236.13296702 -991.03679183 234.60151308 -988.9140625 233.06640625 C-944.08421583 200.80667528 -893.74153992 173.91475618 -843.0625 152.0625 C-842.10794922 151.64967773 -841.15339844 151.23685547 -840.16992188 150.81152344 C-832.49221836 147.50183057 -824.7853484 144.26529762 -817.0625 141.0625 C-815.96341309 140.60536621 -814.86432617 140.14823242 -813.73193359 139.67724609 C-781.57200128 126.36920229 -748.71496073 114.36931113 -715.45458984 104.11474609 C-711.68853121 102.9464927 -707.93203106 101.75009089 -704.17578125 100.55078125 C-689.52783101 95.88733126 -674.84130121 91.53184444 -659.96875 87.62890625 C-655.55076488 86.46847715 -651.1597948 85.24008586 -646.77685547 83.9543457 C-621.53678866 76.55267944 -595.96117176 70.26383656 -570.23046875 64.828125 C-564.48035943 63.60796251 -558.75514552 62.30010993 -553.03118896 60.96276855 C-538.90072675 57.66334888 -524.73097903 54.645031 -510.5 51.8125 C-509.34726593 51.58216064 -508.19453186 51.35182129 -507.00686646 51.11450195 C-488.21157413 47.36828309 -469.37529536 43.88092369 -450.5 40.5625 C-449.32573456 40.35508179 -448.15146912 40.14766357 -446.94161987 39.93395996 C-433.6298132 37.5905555 -420.31803475 35.47956676 -406.91723633 33.71533203 C-401.65752587 33.01939167 -396.42476881 32.1865204 -391.18969727 31.32568359 C-369.0647352 27.6888303 -346.80922628 25.0606681 -324.55395508 22.36523438 C-321.28010654 21.9674321 -318.00721758 21.56224334 -314.734375 21.15625 C-298.1515145 19.11189736 -281.53783536 17.33891934 -264.92285156 15.57861328 C-261.74217227 15.24154294 -258.5618492 14.90140141 -255.38183594 14.55810547 C-227.64806591 11.5674931 -199.87819894 9.15441883 -172.0625 7.0625 C-171.12978271 6.99224609 -170.19706543 6.92199219 -169.23608398 6.84960938 C-143.26375825 4.90706164 -117.26748224 3.58795014 -91.25 2.4375 C-90.54010799 2.40596203 -89.83021599 2.37442406 -89.0988121 2.34193039 C-59.40672804 1.0246021 -29.72669596 -0.13174303 0 0 Z " fill="#FEFEFE" transform="translate(2418.0625,1502.9375)"/>
<path d="M0 0 C0 165 0 330 0 500 C-3.23386286 498.38306857 -4.89609296 497.37050879 -7.390625 494.98828125 C-8.01324219 494.39926025 -8.63585938 493.81023926 -9.27734375 493.20336914 C-9.92832031 492.57938232 -10.57929687 491.95539551 -11.25 491.3125 C-12.60844014 490.02505453 -13.96780375 488.73858271 -15.328125 487.453125 C-15.9355957 486.8746582 -16.54306641 486.29619141 -17.16894531 485.70019531 C-19.07065564 483.93439388 -21.02246391 482.24264874 -23 480.5625 C-31.70545391 473.06241663 -40.00605511 464.64383823 -47.4140625 455.86328125 C-49.30191407 453.64528815 -51.27702792 451.51757845 -53.25 449.375 C-58.83553453 443.17410997 -63.94491507 436.63479898 -69 430 C-69.44601562 429.41621582 -69.89203125 428.83243164 -70.3515625 428.23095703 C-119.02035804 364.17527986 -148.3465919 284.93472401 -139 204 C-134.91425731 174.20377003 -124.98178726 146.49984622 -111 120 C-110.63181152 119.29552734 -110.26362305 118.59105469 -109.88427734 117.86523438 C-101.02321742 101.02059571 -90.40691477 85.33488246 -78.33300781 70.62548828 C-77.46436985 69.56625906 -76.60142659 68.50232604 -75.74511719 67.43310547 C-68.70294188 58.65371388 -60.86660351 50.65842448 -52.9375 42.6875 C-52.43070709 42.17544006 -51.92391418 41.66338013 -51.40176392 41.13580322 C-44.60512587 34.28462943 -37.57034897 28.00422157 -30 22 C-28.62468001 20.8681271 -27.25201127 19.73301997 -25.8828125 18.59375 C-3.35211307 0 -3.35211307 0 0 0 Z " fill="#00DBF8" transform="translate(1838,1688)"/>
<path d="M0 0 C1.77661011 0.01353516 1.77661011 0.01353516 3.58911133 0.02734375 C22.5248185 0.40018054 40.58612843 6.49063385 54.75 19.4375 C56.07064453 20.62085937 56.07064453 20.62085937 57.41796875 21.828125 C67.73666343 31.5632797 75.1839969 42.93645555 79.75 56.4375 C80.06839844 57.34757812 80.38679688 58.25765625 80.71484375 59.1953125 C86.90483581 80.58929428 83.07242782 103.20608883 72.75 122.4375 C61.15060508 141.73418925 43.9521767 154.47984416 22.75 161.4375 C0.49943764 166.80634537 -22.50611777 163.31093055 -42.125 151.7421875 C-62.48041961 138.06588995 -74.78358249 119.47191219 -79.828125 95.71484375 C-82.77830332 72.79632881 -78.69274003 50.65388489 -64.4375 32.125 C-63.06784408 30.53950336 -61.67048079 28.97762703 -60.25 27.4375 C-59.42757812 26.52355469 -58.60515625 25.60960938 -57.7578125 24.66796875 C-42.36794439 8.36363021 -22.29908713 -0.20450549 0 0 Z " fill="#0861B2" transform="translate(2618.25,2137.5625)"/>
<path d="M0 0 C1.77661011 0.01353516 1.77661011 0.01353516 3.58911133 0.02734375 C22.5248185 0.40018054 40.58612843 6.49063385 54.75 19.4375 C56.07064453 20.62085937 56.07064453 20.62085937 57.41796875 21.828125 C67.73666343 31.5632797 75.1839969 42.93645555 79.75 56.4375 C80.06839844 57.34757812 80.38679688 58.25765625 80.71484375 59.1953125 C86.90483581 80.58929428 83.07242782 103.20608883 72.75 122.4375 C61.15060508 141.73418925 43.9521767 154.47984416 22.75 161.4375 C0.49943764 166.80634537 -22.50611777 163.31093055 -42.125 151.7421875 C-62.48041961 138.06588995 -74.78358249 119.47191219 -79.828125 95.71484375 C-82.77830332 72.79632881 -78.69274003 50.65388489 -64.4375 32.125 C-63.06784408 30.53950336 -61.67048079 28.97762703 -60.25 27.4375 C-59.42757812 26.52355469 -58.60515625 25.60960938 -57.7578125 24.66796875 C-42.36794439 8.36363021 -22.29908713 -0.20450549 0 0 Z M-45.48046875 45.0390625 C-56.8535996 59.84760435 -58.42435577 74.34858134 -57.25 92.4375 C-56.61234181 97.0462653 -55.16216962 101.20213364 -53.25 105.4375 C-52.61384766 106.85869141 -52.61384766 106.85869141 -51.96484375 108.30859375 C-44.69984079 122.89931 -32.42467753 132.85673016 -17.25 138.4375 C-1.42674939 143.17280366 15.30169735 141.54616339 29.83203125 133.79296875 C44.75416035 124.74987273 54.62429991 112.35182053 59.10839844 95.44946289 C60.12777183 90.66407115 60.28270503 86.00508745 60.25 81.125 C60.24141968 79.62114746 60.24141968 79.62114746 60.23266602 78.08691406 C59.87379019 63.09871298 53.7761524 50.56921138 43.5 39.6875 C30.68991314 27.59028475 14.67781291 21.74316051 -2.83984375 22.09375 C-19.78389104 22.99363302 -34.65637617 32.41411389 -45.48046875 45.0390625 Z " fill="#FCFDFE" transform="translate(2618.25,2137.5625)"/>
<path d="M0 0 C42.48296837 0 42.48296837 0 51.203125 7.16796875 C56.83216958 12.90714681 58.48987772 19.13900279 58.625 27.0625 C58.48776632 37.15445376 54.22291392 42.61617272 48 50 C49.5183238 52.14764915 51.03898449 54.29353594 52.5625 56.4375 C53.01415527 57.07333008 53.46581055 57.70916016 53.93115234 58.36425781 C57.09635278 62.79621163 60.37676989 67.10700825 63.8203125 71.328125 C65 73 65 73 65 75 C58.33998233 76.14573745 51.52611654 77.22926015 45 75 C39.35106774 70.46984589 35.64858137 64.07113152 32.08129883 57.85766602 C31.13474291 56.04960876 31.13474291 56.04960876 30 55 C27.65012738 54.76472227 25.29443961 54.58613583 22.9375 54.4375 C20.648125 54.293125 18.35875 54.14875 16 54 C16 60.93 16 67.86 16 75 C10.72 75 5.44 75 0 75 C0 50.25 0 25.5 0 0 Z " fill="#FAFCFD" transform="translate(2591,2182)"/>
<path d="M0 0 C3.01125 -0.0825 6.0225 -0.165 9.125 -0.25 C10.06230957 -0.28641602 10.99961914 -0.32283203 11.96533203 -0.36035156 C17.63039899 -0.43516182 20.67553897 0.26963425 25 4 C26.73125121 7.46250243 26.47815224 11.21408229 26 15 C23.84634913 18.61505681 21.84115492 20.40700384 18 22 C15.89355469 22.22705078 15.89355469 22.22705078 13.671875 22.1953125 C12.9509668 22.19031738 12.23005859 22.18532227 11.48730469 22.18017578 C10.58399414 22.16196777 9.68068359 22.14375977 8.75 22.125 C4.41875 22.063125 4.41875 22.063125 0 22 C0 14.74 0 7.48 0 0 Z " fill="#0D64B4" transform="translate(2607,2198)"/>
</svg>
